<?xml version="1.0" encoding="UTF-8"?><svg id="Layer_2" xmlns="http://www.w3.org/2000/svg" viewBox="0 0 231.75 223.38"><defs><style>.cls-1{fill:#60f56f;}</style></defs><g id="Layer_1-2"><path class="cls-1" d="M212.09,76.17l-12.25-6.89c1.9-2.54,3.15-5.61,3.59-8.94l1.85-14.19c.91-6.95-2.02-13.96-7.47-17.85L162.51,3.09c-7.46-5.31-17.64-3.61-23.18,3.89l-13.02,17.61c-3.25,4.39-4.44,10.05-3.27,15.52,1.12,5.23,4.31,9.66,8.75,12.17l32.75,18.44-48.67,30.07-48.67-30.07,32.76-18.44c4.44-2.5,7.63-6.94,8.75-12.17,1.17-5.47-.02-11.13-3.27-15.52l-13.02-17.6c-5.54-7.5-15.72-9.21-23.18-3.89l-35.29,25.21c-5.45,3.89-8.38,10.89-7.48,17.84l1.85,14.18c.43,3.33,1.68,6.4,3.59,8.95l-12.25,6.89C7.53,82.99,0,96.6,0,111.69s7.53,28.7,19.66,35.52l12.24,6.89c-1.9,2.54-3.15,5.61-3.58,8.94l-1.86,14.19c-.91,6.95,2.03,13.95,7.48,17.84l35.29,25.2c2.92,2.09,6.27,3.1,9.59,3.1,5.14,0,10.22-2.42,13.59-6.98l13.02-17.61c3.25-4.39,4.44-10.05,3.27-15.52-1.12-5.23-4.31-9.66-8.75-12.16l-32.75-18.44,48.67-30.07,48.67,30.07-32.75,18.44c-4.44,2.5-7.63,6.93-8.75,12.16-1.17,5.47.02,11.13,3.27,15.53l13.02,17.61c3.37,4.56,8.45,6.98,13.6,6.98,3.32,0,6.66-1.01,9.58-3.1l35.29-25.21c5.45-3.89,8.39-10.9,7.47-17.84l-1.85-14.19c-.44-3.33-1.68-6.4-3.59-8.94l12.25-6.89c12.13-6.83,19.66-20.44,19.66-35.52s-7.53-28.7-19.66-35.52Z"/></g></svg>