<?xml version="1.0" encoding="UTF-8"?><svg id="Layer_2" xmlns="http://www.w3.org/2000/svg" viewBox="0 0 481.67 72.94"><defs><style>.cls-1{fill:#60f56f;}</style></defs><g id="Layer_1-2"><path d="M128.68,39.91h9.74c-.85,9.62-9.23,16.41-21.25,16.41s-21.83-7.47-21.83-21.91,9.45-21.91,21.83-21.91,20.66,7.22,21.25,16.41h-9.71c-1.34-4.64-4.58-6.85-11.54-6.85-7.37,0-12.47,3.78-12.47,12.34s5.1,12.34,12.47,12.34,10.33-2.59,11.51-6.85h0Z"/><path d="M179.09,38.71c0,12.12-8.79,17.6-19.27,17.6s-19.27-5.65-19.27-17.6,8.79-17.6,19.27-17.6,19.27,5.64,19.27,17.6ZM169.87,38.71c0-6.37-4.18-9.05-10.05-9.05s-10.05,2.57-10.05,9.05,4.18,9.05,10.05,9.05,10.05-2.78,10.05-9.05Z"/><path d="M220.22,22.14v30.85c0,7.11-1.33,19.95-18.5,19.95-15.52,0-18.49-8.38-18.49-13.52h9.29c.22,1.86,1.86,5.43,9.16,5.43,6.33,0,9.17-4.15,9.17-10.46v-2.51h-.43c-2.34,3.01-6.28,4.82-12.77,4.82-14.5,0-16.13-12.63-16.13-17.29,0-5.04,1.54-17.29,16.16-17.29,6.39,0,10.3,2.01,12.65,5.08h.53v-5.08h9.38ZM210.12,39.42c0-4.68-1.66-9.23-9.75-9.23-8.98,0-9.92,6.54-9.92,9.23,0,2.48,1,9.23,9.91,9.23,8.11,0,9.76-4,9.76-9.23Z"/><path d="M259.95,39.04v17.28h-9.31v-17.28c0-2.69.58-9.22-8.39-9.22-8.09,0-9.3,5.16-9.3,9.84v16.66h-9.37V21.77h9.37v5.07h.44c2.23-3.04,5.38-5.07,11.57-5.07,14.61,0,15,12.24,15,17.28Z"/><path d="M263.29,19.51v-8.35h9.33v8.35h-9.33ZM263.29,56.32V21.97h9.33v34.35h-9.33Z"/><path d="M289.3,42.03h0v.69c0,5.03,2.26,4.3,11.22,3.81v9.14s-1.84.64-11.22.64-9.38-7.7-9.38-12.73v-13.85h-4.61v-7.89h4.61v-9.98h9.38v9.98h11.22v7.89h-11.22v12.29Z"/><path d="M303.02,19.51v-8.35h9.33v8.35h-9.33ZM303.02,56.32V21.97h9.33v34.35h-9.33Z"/><path d="M353.57,38.71c0,12.12-8.79,17.6-19.27,17.6s-19.27-5.65-19.27-17.6,8.79-17.6,19.27-17.6,19.27,5.64,19.27,17.6ZM344.35,38.71c0-6.37-4.18-9.05-10.05-9.05s-10.05,2.57-10.05,9.05,4.18,9.05,10.05,9.05,10.05-2.78,10.05-9.05Z"/><path d="M392.49,39.04v17.28h-9.31v-17.28c0-2.69.58-9.22-8.39-9.22-8.09,0-9.3,5.16-9.3,9.84v16.66h-9.37V21.77h9.37v5.07h.44c2.23-3.04,5.38-5.07,11.57-5.07,14.61,0,15,12.24,15,17.28Z"/><path d="M395.84,13.21h41.95v8.56h-16.29v34.55h-9.38V21.77h-16.29v-8.56Z"/><path d="M481.67,34.41c0,14.17-9.59,21.91-22.13,21.91s-22.13-7.47-22.13-21.91,9.59-21.91,22.13-21.91,22.13,7.74,22.13,21.91ZM472.49,34.41c0-8.42-5.48-12.34-12.95-12.34s-12.95,3.78-12.95,12.34,5.48,12.34,12.95,12.34,12.95-4.06,12.95-12.34Z"/><path class="cls-1" d="M68.55,24.62l-3.96-2.23c.62-.82,1.02-1.81,1.16-2.89l.6-4.58c.29-2.25-.65-4.51-2.42-5.77L52.53,1c-2.41-1.72-5.7-1.17-7.49,1.26l-4.21,5.69c-1.05,1.42-1.43,3.25-1.06,5.02.36,1.69,1.39,3.12,2.83,3.93l10.59,5.96-15.73,9.72-15.73-9.72,10.59-5.96c1.44-.81,2.47-2.24,2.83-3.93.38-1.77,0-3.6-1.06-5.02l-4.21-5.69c-1.79-2.42-5.08-2.98-7.49-1.26l-11.41,8.15c-1.76,1.26-2.71,3.52-2.42,5.77l.6,4.58c.14,1.08.54,2.07,1.16,2.89l-3.96,2.23c-3.92,2.21-6.35,6.61-6.35,11.48s2.43,9.28,6.35,11.48l3.96,2.23c-.62.82-1.02,1.81-1.16,2.89l-.6,4.59c-.29,2.25.66,4.51,2.42,5.77l11.41,8.15c.95.68,2.03,1,3.1,1,1.66,0,3.3-.78,4.39-2.25l4.21-5.69c1.05-1.42,1.44-3.25,1.06-5.02-.36-1.69-1.39-3.12-2.83-3.93l-10.59-5.96,15.73-9.72,15.73,9.72-10.59,5.96c-1.44.81-2.47,2.24-2.83,3.93-.38,1.77,0,3.6,1.06,5.02l4.21,5.69c1.09,1.47,2.73,2.26,4.39,2.26,1.07,0,2.15-.33,3.1-1l11.41-8.15c1.76-1.26,2.71-3.52,2.42-5.77l-.6-4.59c-.14-1.08-.54-2.07-1.16-2.89l3.96-2.23c3.92-2.21,6.35-6.61,6.35-11.48s-2.43-9.28-6.35-11.48ZM45.64,11.72c-.02-.07-.01-.18.01-.21l3.9-5.27,10.83,7.72s.03.08.02.17l-.62,4.64-.77.47-13.38-7.53ZM25.36,6.24l3.9,5.27s.03.14.01.21l-13.38,7.53-.79-.49h0s0-.01,0-.04l-.6-4.59c0-.08,0-.15-.02-.12l10.88-7.77ZM29.27,60.48c.02.07.01.17-.01.21l-3.9,5.27-10.83-7.72s-.03-.08-.02-.17l.62-4.64.77-.47,13.38,7.53ZM15.75,45.98l-6.45-3.63c-2-1.13-3.3-3.58-3.3-6.25s1.29-5.12,3.3-6.25l6.45-3.63,16,9.88-16,9.88ZM49.55,65.96l-3.9-5.27s-.03-.14-.01-.21l13.38-7.53.79.49s-.01,0,0,.04l.6,4.59c0,.08,0,.13.02.12l-10.88,7.77ZM65.61,42.35l-6.45,3.63-16-9.88,16-9.88,6.45,3.63c2,1.13,3.3,3.58,3.3,6.25s-1.29,5.12-3.3,6.25Z"/></g></svg>